<svg width="52" height="52" viewBox="0 0 52 52" fill="none" xmlns="http://www.w3.org/2000/svg">
<path d="M10.6797 41.3205C8.66476 39.3108 7.06684 36.9228 5.97776 34.2936C4.88867 31.6644 4.32989 28.8459 4.33351 26C4.33351 14.0335 14.0337 4.33337 26.0002 4.33337C37.9667 4.33337 47.6668 14.0335 47.6668 26C47.6668 37.9665 37.9667 47.6667 26.0002 47.6667H4.33351L10.6797 41.3205Z" fill="#2C4B9D"/>
<path d="M23.0879 29.3691V28.3574C23.0879 27.4824 23.2747 26.7214 23.6484 26.0742C24.0221 25.4271 24.7057 24.7389 25.6992 24.0098C26.6562 23.3262 27.2852 22.7702 27.5859 22.3418C27.8958 21.9134 28.0508 21.4349 28.0508 20.9062C28.0508 20.3138 27.832 19.8626 27.3945 19.5527C26.957 19.2428 26.3464 19.0879 25.5625 19.0879C24.1953 19.0879 22.6367 19.5345 20.8867 20.4277L19.3965 17.4336C21.429 16.2943 23.5846 15.7246 25.8633 15.7246C27.7409 15.7246 29.2311 16.1758 30.334 17.0781C31.446 17.9805 32.002 19.1836 32.002 20.6875C32.002 21.6901 31.7741 22.556 31.3184 23.2852C30.8626 24.0143 29.9967 24.8346 28.7207 25.7461C27.8457 26.3932 27.2897 26.8854 27.0527 27.2227C26.8249 27.5599 26.7109 28.002 26.7109 28.5488V29.3691H23.0879ZM22.6504 34.0449C22.6504 33.2793 22.8555 32.7005 23.2656 32.3086C23.6758 31.9167 24.2728 31.7207 25.0566 31.7207C25.8132 31.7207 26.3965 31.9212 26.8066 32.3223C27.2259 32.7233 27.4355 33.2975 27.4355 34.0449C27.4355 34.765 27.2259 35.3346 26.8066 35.7539C26.3874 36.1641 25.804 36.3691 25.0566 36.3691C24.291 36.3691 23.6986 36.1686 23.2793 35.7676C22.86 35.3574 22.6504 34.7832 22.6504 34.0449Z" fill="white"/>
</svg>
