<svg width="46" height="46" viewBox="0 0 46 46" fill="none" xmlns="http://www.w3.org/2000/svg">
<path fill-rule="evenodd" clip-rule="evenodd" d="M23.4229 0.991348C23.0323 0.600823 22.3992 0.600825 22.0087 0.991349L0.707107 22.2929C0.316583 22.6834 0.316583 23.3166 0.707108 23.7071L6.88334 29.8833C6.88335 29.8833 6.88337 29.8833 6.88338 29.8833C6.88339 29.8833 6.88341 29.8833 6.88343 29.8833L22.0087 45.0086C22.3992 45.3991 23.0324 45.3991 23.4229 45.0086L28.8872 39.5444C29.2777 39.1538 29.2777 38.5207 28.8872 38.1301L14.469 23.7119C14.0785 23.3214 14.0785 22.6882 14.469 22.2977L28.892 7.87471C29.2825 7.48418 29.2825 6.85102 28.892 6.46049L23.4229 0.991348Z" fill="white"/>
</svg>
